<?xml version="1.0" standalone="no"?>
<!DOCTYPE svg PUBLIC "-//W3C//DTD SVG 20010904//EN"
 "http://www.w3.org/TR/2001/REC-SVG-20010904/DTD/svg10.dtd">
<svg version="1.0" xmlns="http://www.w3.org/2000/svg"
 width="1280.000000pt" height="717.000000pt" viewBox="0 0 1280.000000 717.000000"
 preserveAspectRatio="xMidYMid meet">
<g transform="translate(0.000000,717.000000) scale(0.100000,-0.100000)"
fill="#000000" stroke="none">
<path d="M6299 7166 c-2 -2 -49 -9 -104 -16 -240 -28 -443 -85 -652 -185 -490
-235 -862 -645 -1057 -1167 -136 -366 -164 -811 -76 -1208 115 -517 443 -994
886 -1288 334 -222 701 -332 1107 -332 338 0 630 71 922 223 606 317 1010 910
1105 1620 14 112 12 403 -4 527 -104 768 -599 1412 -1296 1684 -176 68 -266
90 -577 135 -70 11 -245 15 -254 7z m356 -1010 c412 -106 722 -456 800 -903
62 -355 -58 -734 -315 -994 -316 -321 -781 -403 -1185 -210 -689 329 -839
1275 -291 1827 265 266 635 370 991 280z"/>
<path d="M1522 6928 c-545 -715 -1336 -1768 -1374 -1832 -60 -99 -100 -204
-127 -331 -27 -127 -26 -162 4 -290 39 -165 96 -267 209 -372 111 -105 253
-176 437 -219 65 -15 154 -18 754 -23 l680 -6 3 -377 2 -378 490 0 490 0 2
378 3 377 463 3 462 2 0 490 0 490 -462 2 -463 3 -3 1113 -2 1112 -729 0 -730
0 -109 -142z m586 -1485 l-3 -598 -450 0 c-397 0 -450 2 -449 15 2 23 875
1180 891 1180 11 0 13 -106 11 -597z"/>
<path d="M10367 7028 c-71 -89 -1377 -1819 -1415 -1875 -196 -289 -227 -632
-79 -893 42 -75 177 -208 263 -258 80 -48 195 -92 305 -118 65 -15 154 -18
754 -23 l680 -6 3 -378 2 -377 488 2 487 3 5 375 5 375 468 3 467 2 0 490 0
490 -467 2 -468 3 -3 1113 -2 1112 -729 0 -730 0 -34 -42z m508 -1589 l0 -594
-454 -3 c-442 -2 -453 -2 -448 17 8 30 879 1182 891 1178 8 -3 11 -178 11
-598z"/>
<path d="M3385 1501 c-24 -5 -30 -12 -30 -31 0 -21 5 -25 28 -24 158 3 165 4
171 21 5 11 1 22 -10 30 -18 13 -106 16 -159 4z"/>
<path d="M4707 1504 c-4 -4 -7 -51 -7 -105 0 -80 3 -98 16 -103 35 -14 45 12
42 113 -3 88 -5 96 -23 99 -12 2 -24 0 -28 -4z"/>
<path d="M5356 1497 c-53 -13 -79 -38 -59 -58 9 -9 30 -9 90 0 109 17 115 19
111 44 -3 19 -10 22 -48 24 -25 1 -67 -4 -94 -10z"/>
<path d="M6066 1495 c-3 -9 -6 -54 -6 -100 0 -87 11 -112 44 -99 14 5 16 21
14 108 -3 94 -4 101 -24 104 -13 2 -24 -4 -28 -13z"/>
<path d="M6733 1500 c-53 -11 -83 -27 -83 -45 0 -25 19 -27 108 -15 92 14 117
26 106 53 -7 19 -57 21 -131 7z"/>
<path d="M7846 1497 c-53 -13 -79 -38 -59 -58 9 -9 32 -8 95 1 87 14 115 28
105 54 -8 19 -67 20 -141 3z"/>
<path d="M9237 1503 c-4 -3 -7 -51 -7 -105 0 -79 3 -100 15 -104 33 -13 45 15
45 101 0 46 -3 90 -6 99 -6 16 -35 22 -47 9z"/>
<path d="M9915 1503 c-92 -22 -95 -23 -95 -48 0 -29 13 -31 106 -15 105 18
106 19 102 43 -3 19 -10 22 -48 24 -25 0 -54 -1 -65 -4z"/>
<path d="M8101 1491 c-31 -20 -5 -44 78 -73 89 -31 114 -31 109 4 -2 16 -18
27 -63 43 -82 30 -108 36 -124 26z"/>
<path d="M3664 1465 c-10 -26 0 -35 84 -72 73 -31 85 -34 98 -21 25 25 5 46
-71 77 -82 35 -103 38 -111 16z"/>
<path d="M3150 1419 c-69 -38 -93 -60 -84 -82 9 -24 20 -21 104 26 53 30 76
49 78 65 5 32 -30 29 -98 -9z"/>
<path d="M5120 1393 c-64 -48 -100 -87 -100 -105 0 -29 29 -33 58 -9 15 12 49
38 75 58 35 26 47 41 45 57 -4 31 -37 30 -78 -1z"/>
<path d="M6447 1364 c-51 -42 -67 -61 -65 -77 5 -36 31 -30 98 24 82 64 93 78
79 96 -20 23 -42 14 -112 -43z"/>
<path d="M7581 1375 c-68 -50 -81 -69 -60 -91 12 -12 25 -6 89 39 49 35 75 60
75 73 0 35 -38 27 -104 -21z"/>
<path d="M9619 1369 c-75 -60 -81 -67 -68 -91 14 -26 27 -23 78 20 25 21 59
47 74 57 19 12 27 25 25 39 -5 38 -41 30 -109 -25z"/>
<path d="M8370 1343 c1 -27 114 -143 139 -143 39 0 24 40 -37 102 -59 59 -102
76 -102 41z"/>
<path d="M3930 1315 c-16 -20 -14 -24 57 -99 64 -67 93 -77 93 -32 0 24 -104
146 -125 146 -7 0 -18 -7 -25 -15z"/>
<path d="M2928 1231 c-66 -77 -86 -141 -44 -141 19 0 118 137 114 158 -6 31
-35 24 -70 -17z"/>
<path d="M7408 1193 c-28 -32 -78 -142 -72 -157 3 -9 14 -16 24 -16 21 0 100
135 100 170 0 25 -31 27 -52 3z"/>
<path d="M4876 1129 c-52 -81 -59 -119 -23 -119 16 0 34 19 70 75 51 77 56
108 21 113 -17 2 -31 -12 -68 -69z"/>
<path d="M6274 1178 c-35 -39 -85 -129 -82 -147 2 -9 12 -17 24 -19 16 -2 31
14 68 68 47 72 56 112 26 118 -9 1 -25 -8 -36 -20z"/>
<path d="M9405 1131 c-54 -84 -61 -116 -25 -116 19 0 34 15 73 73 50 76 55
112 16 112 -13 0 -34 -23 -64 -69z"/>
<path d="M4707 1184 c-4 -4 -7 -51 -7 -105 0 -80 3 -98 16 -103 35 -14 45 12
42 113 -3 88 -5 96 -23 99 -12 2 -24 0 -28 -4z"/>
<path d="M6066 1175 c-3 -9 -6 -54 -6 -100 0 -87 11 -112 44 -99 14 5 16 21
14 108 -3 94 -4 101 -24 104 -13 2 -24 -4 -28 -13z"/>
<path d="M9237 1183 c-4 -3 -7 -50 -7 -104 0 -80 3 -98 16 -103 33 -13 44 13
44 99 0 46 -3 90 -6 99 -6 16 -35 22 -47 9z"/>
<path d="M8564 1106 c-6 -15 39 -147 59 -173 15 -20 36 -15 43 10 3 15 -6 53
-23 98 -22 58 -33 75 -51 77 -13 2 -25 -3 -28 -12z"/>
<path d="M4111 1066 c-9 -11 -6 -32 13 -97 24 -86 45 -114 68 -91 22 22 -26
189 -58 199 -6 2 -16 -3 -23 -11z"/>
<path d="M2802 983 c-13 -24 -32 -117 -32 -153 0 -42 25 -51 133 -48 86 3 92
4 95 25 4 24 -17 31 -113 35 l-50 3 4 40 c8 89 7 109 -11 113 -9 2 -21 -5 -26
-15z"/>
<path d="M7299 914 c-8 -9 -15 -51 -17 -103 -4 -77 -2 -89 14 -95 9 -4 22 -2
27 3 15 15 28 183 15 198 -14 17 -23 16 -39 -3z"/>
<path d="M4758 902 c-7 -11 -23 -24 -35 -31 -22 -11 -23 -18 -23 -110 0 -82 3
-100 16 -105 24 -9 44 12 44 48 0 17 12 65 27 107 14 41 24 83 20 92 -8 22
-33 22 -49 -1z"/>
<path d="M6116 895 c-9 -14 -23 -25 -30 -25 -21 0 -26 -23 -26 -115 0 -58 4
-86 14 -94 24 -21 43 -2 48 47 3 26 17 78 32 115 22 54 25 71 16 82 -18 22
-36 18 -54 -10z"/>
<path d="M9263 885 c-33 -33 -33 -35 -33 -128 0 -78 3 -96 16 -101 26 -10 44
13 44 56 0 22 12 69 26 104 14 35 24 72 22 82 -5 28 -41 22 -75 -13z"/>
<path d="M3130 833 c-22 -9 -30 -26 -18 -40 7 -9 40 -13 105 -13 78 0 95 3
100 16 11 29 -25 44 -101 43 -39 0 -78 -3 -86 -6z"/>
<path d="M3437 833 c-12 -3 -17 -12 -15 -26 3 -21 9 -22 101 -25 84 -2 98 0
104 14 11 29 -24 44 -101 43 -39 -1 -79 -3 -89 -6z"/>
<path d="M3745 826 c-11 -8 -16 -19 -12 -30 9 -24 195 -24 204 0 11 29 -25 44
-102 44 -44 0 -78 -5 -90 -14z"/>
<path d="M4055 826 c-11 -8 -16 -19 -12 -30 6 -14 19 -16 84 -14 71 3 78 5 81
24 2 15 -4 23 -20 28 -40 10 -114 6 -133 -8z"/>
<path d="M8642 808 c-5 -7 -11 -60 -13 -118 -4 -101 -3 -105 17 -108 13 -2 24
4 28 15 11 28 25 179 19 202 -6 23 -35 28 -51 9z"/>
<path d="M2776 682 c-7 -12 12 -117 29 -159 9 -22 21 -33 34 -33 26 0 26 19 2
120 -14 61 -22 76 -38 78 -12 2 -24 -1 -27 -6z"/>
<path d="M7310 610 c-29 -18 30 -200 65 -200 28 0 28 28 0 115 -27 84 -40 100
-65 85z"/>
<path d="M4707 544 c-4 -4 -7 -52 -7 -106 0 -79 3 -100 15 -104 8 -4 22 -1 30
6 13 10 15 33 13 109 -3 88 -5 96 -23 99 -12 2 -24 0 -28 -4z"/>
<path d="M6066 535 c-3 -9 -6 -54 -6 -100 0 -86 12 -114 45 -101 13 5 15 23
13 108 -3 96 -4 103 -24 106 -13 2 -24 -4 -28 -13z"/>
<path d="M9237 543 c-4 -3 -7 -51 -7 -105 0 -79 3 -100 15 -104 8 -4 22 -1 30
6 19 16 21 180 3 198 -13 13 -31 16 -41 5z"/>
<path d="M8550 421 c-16 -33 -34 -62 -40 -66 -16 -10 -12 -55 5 -62 22 -8 46
17 85 90 35 67 36 97 0 97 -14 0 -28 -16 -50 -59z"/>
<path d="M2883 384 c-8 -21 6 -49 56 -111 43 -56 60 -63 81 -38 11 13 10 20
-9 43 -12 15 -38 48 -57 75 -37 48 -60 59 -71 31z"/>
<path d="M4041 371 c-6 -11 -29 -41 -52 -67 -42 -48 -49 -86 -17 -92 23 -4
130 126 126 153 -4 28 -44 32 -57 6z"/>
<path d="M7442 328 c-20 -20 -14 -35 44 -97 39 -42 64 -61 80 -61 38 0 29 27
-32 94 -67 72 -77 79 -92 64z"/>
<path d="M4707 223 c-4 -3 -7 -50 -7 -103 0 -77 3 -100 16 -111 29 -24 44 14
44 107 0 45 -3 89 -6 98 -6 16 -35 22 -47 9z"/>
<path d="M6066 215 c-3 -9 -6 -54 -6 -99 0 -94 15 -131 44 -107 14 12 16 31
14 115 -3 94 -4 101 -24 104 -13 2 -24 -4 -28 -13z"/>
<path d="M8340 185 c-71 -50 -83 -64 -70 -84 12 -21 50 -7 119 44 41 30 61 52
59 63 -6 31 -42 23 -108 -23z"/>
<path d="M9237 223 c-9 -8 -9 -186 -1 -207 8 -21 24 -20 40 2 17 22 19 183 2
200 -13 13 -31 16 -41 5z"/>
<path d="M3094 158 c-8 -26 7 -39 94 -80 66 -32 92 -31 92 1 0 15 -17 29 -62
51 -35 17 -67 35 -72 41 -17 16 -44 10 -52 -13z"/>
<path d="M3762 131 c-57 -28 -72 -40 -70 -56 5 -32 34 -29 114 9 65 31 75 39
72 58 -5 34 -33 31 -116 -11z"/>
<path d="M7673 125 c-17 -13 -17 -15 2 -34 23 -24 122 -61 160 -61 27 0 44 25
29 40 -5 5 -46 22 -91 38 -70 26 -84 28 -100 17z"/>
<path d="M8105 80 c-16 -4 -51 -8 -77 -9 -52 -1 -63 -10 -54 -47 7 -27 39 -32
92 -15 16 5 45 12 66 16 39 6 55 29 37 51 -12 15 -19 16 -64 4z"/>
<path d="M3384 55 c-4 -9 2 -25 11 -35 15 -16 31 -20 90 -20 78 0 110 14 103
46 -3 17 -14 19 -101 22 -81 2 -98 0 -103 -13z"/>
</g>
</svg>
